<svg width="1920" height="121" viewBox="0 0 1920 121" fill="none" xmlns="http://www.w3.org/2000/svg">
<path d="M1918.78 30.8724L1950 61.7449V121H-48V61.7449L-16.7812 30.8724C0.516479 13.7666 28.3586 13.7666 45.6562 30.8724C62.954 47.9782 90.7961 47.9782 108.094 30.8724C125.391 13.7666 153.234 13.7666 170.531 30.8724C187.829 47.9782 215.671 47.9782 232.969 30.8724C250.266 13.7666 278.109 13.7666 295.406 30.8724C312.704 47.9782 340.546 47.9782 357.844 30.8724C375.141 13.7666 402.984 13.7666 420.281 30.8724C437.579 47.9782 465.421 47.9782 482.719 30.8724C500.016 13.7666 527.859 13.7666 545.156 30.8724C562.454 47.9782 590.296 47.9782 607.594 30.8724C624.891 13.7666 652.734 13.7666 670.031 30.8724C687.329 47.9782 715.171 47.9782 732.469 30.8724C749.766 13.7666 777.609 13.7666 794.906 30.8724C812.204 47.9782 840.046 47.9782 857.344 30.8724C874.641 13.7666 902.484 13.7666 919.781 30.8724C937.079 47.9782 964.921 47.9782 982.219 30.8724C999.516 13.7666 1027.36 13.7666 1044.66 30.8724C1061.95 47.9782 1089.8 47.9782 1107.09 30.8724C1124.39 13.7666 1152.23 13.7666 1169.53 30.8724C1186.83 47.9782 1214.67 47.9782 1231.97 30.8724C1249.27 13.7666 1277.11 13.7666 1294.41 30.8724C1311.7 47.9782 1339.55 47.9782 1356.84 30.8724C1374.14 13.7666 1401.98 13.7666 1419.28 30.8724C1436.58 47.9782 1464.42 47.9782 1481.72 30.8724C1499.02 13.7666 1526.86 13.7666 1544.16 30.8724C1561.45 47.9782 1589.3 47.9782 1606.59 30.8724C1623.89 13.7666 1651.73 13.7666 1669.03 30.8724C1686.33 47.9782 1714.17 47.9782 1731.47 30.8724C1748.77 13.7666 1776.61 13.7666 1793.91 30.8724C1811.2 47.9782 1839.05 47.9782 1856.34 30.8724C1873.64 13.7666 1901.48 13.7666 1918.78 30.8724Z" fill="#FAF338"/>
<path d="M45.7813 30.8724L77 61.7449V121H-1921V61.7449L-1889.78 30.8724C-1872.48 13.7666 -1844.64 13.7666 -1827.34 30.8724C-1810.05 47.9782 -1782.2 47.9782 -1764.91 30.8724C-1747.61 13.7666 -1719.77 13.7666 -1702.47 30.8724C-1685.17 47.9782 -1657.33 47.9782 -1640.03 30.8724C-1622.73 13.7666 -1594.89 13.7666 -1577.59 30.8724C-1560.3 47.9782 -1532.45 47.9782 -1515.16 30.8724C-1497.86 13.7666 -1470.02 13.7666 -1452.72 30.8724C-1435.42 47.9782 -1407.58 47.9782 -1390.28 30.8724C-1372.98 13.7666 -1345.14 13.7666 -1327.84 30.8724C-1310.55 47.9782 -1282.7 47.9782 -1265.41 30.8724C-1248.11 13.7666 -1220.27 13.7666 -1202.97 30.8724C-1185.67 47.9782 -1157.83 47.9782 -1140.53 30.8724C-1123.23 13.7666 -1095.39 13.7666 -1078.09 30.8724C-1060.8 47.9782 -1032.95 47.9782 -1015.66 30.8724C-998.359 13.7666 -970.516 13.7666 -953.219 30.8724C-935.921 47.9782 -908.079 47.9782 -890.781 30.8724C-873.484 13.7666 -845.641 13.7666 -828.344 30.8724C-811.046 47.9782 -783.204 47.9782 -765.906 30.8724C-748.609 13.7666 -720.766 13.7666 -703.469 30.8724C-686.171 47.9782 -658.329 47.9782 -641.031 30.8724C-623.734 13.7666 -595.891 13.7666 -578.594 30.8724C-561.296 47.9782 -533.454 47.9782 -516.156 30.8724C-498.859 13.7666 -471.016 13.7666 -453.719 30.8724C-436.421 47.9782 -408.579 47.9782 -391.281 30.8724C-373.984 13.7666 -346.141 13.7666 -328.844 30.8724C-311.546 47.9782 -283.704 47.9782 -266.406 30.8724C-249.109 13.7666 -221.266 13.7666 -203.969 30.8724C-186.671 47.9782 -158.829 47.9782 -141.531 30.8724C-124.234 13.7666 -96.3914 13.7666 -79.0938 30.8724C-61.7961 47.9782 -33.9539 47.9782 -16.6562 30.8724C0.641434 13.7666 28.4836 13.7666 45.7813 30.8724Z" fill="#FAF338"/>
</svg>
