<svg width="1920" height="121" viewBox="0 0 1920 121" fill="none" xmlns="http://www.w3.org/2000/svg">
<path d="M-18.7813 90.1276L-50 59.2551L-50 0L1948 0V59.2551L1916.78 90.1276C1899.48 107.233 1871.64 107.233 1854.34 90.1276C1837.05 73.0218 1809.2 73.0218 1791.91 90.1276C1774.61 107.233 1746.77 107.233 1729.47 90.1276C1712.17 73.0218 1684.33 73.0218 1667.03 90.1276C1649.73 107.233 1621.89 107.233 1604.59 90.1276C1587.3 73.0218 1559.45 73.0218 1542.16 90.1276C1524.86 107.233 1497.02 107.233 1479.72 90.1276C1462.42 73.0218 1434.58 73.0218 1417.28 90.1276C1399.98 107.233 1372.14 107.233 1354.84 90.1276C1337.55 73.0218 1309.7 73.0218 1292.41 90.1276C1275.11 107.233 1247.27 107.233 1229.97 90.1276C1212.67 73.0218 1184.83 73.0218 1167.53 90.1276C1150.23 107.233 1122.39 107.233 1105.09 90.1276C1087.8 73.0218 1059.95 73.0218 1042.66 90.1276C1025.36 107.233 997.516 107.233 980.219 90.1276C962.921 73.0218 935.079 73.0218 917.781 90.1276C900.484 107.233 872.641 107.233 855.344 90.1276C838.046 73.0218 810.204 73.0218 792.906 90.1276C775.609 107.233 747.766 107.233 730.469 90.1276C713.171 73.0218 685.329 73.0218 668.031 90.1276C650.734 107.233 622.891 107.233 605.594 90.1276C588.296 73.0218 560.454 73.0218 543.156 90.1276C525.859 107.233 498.016 107.233 480.719 90.1276C463.421 73.0218 435.579 73.0218 418.281 90.1276C400.984 107.233 373.141 107.233 355.844 90.1276C338.546 73.0218 310.704 73.0218 293.406 90.1276C276.109 107.233 248.266 107.233 230.969 90.1276C213.671 73.0218 185.829 73.0218 168.531 90.1276C151.234 107.233 123.391 107.233 106.094 90.1276C88.7961 73.0218 60.9539 73.0218 43.6563 90.1276C26.3586 107.233 -1.48357 107.233 -18.7813 90.1276Z" fill="#FAF338"/>
<path d="M1854.22 90.1276L1823 59.2551V0L3821 0V59.2551L3789.78 90.1276C3772.48 107.233 3744.64 107.233 3727.34 90.1276C3710.05 73.0218 3682.2 73.0218 3664.91 90.1276C3647.61 107.233 3619.77 107.233 3602.47 90.1276C3585.17 73.0218 3557.33 73.0218 3540.03 90.1276C3522.73 107.233 3494.89 107.233 3477.59 90.1276C3460.3 73.0218 3432.45 73.0218 3415.16 90.1276C3397.86 107.233 3370.02 107.233 3352.72 90.1276C3335.42 73.0218 3307.58 73.0218 3290.28 90.1276C3272.98 107.233 3245.14 107.233 3227.84 90.1276C3210.55 73.0218 3182.7 73.0218 3165.41 90.1276C3148.11 107.233 3120.27 107.233 3102.97 90.1276C3085.67 73.0218 3057.83 73.0218 3040.53 90.1276C3023.23 107.233 2995.39 107.233 2978.09 90.1276C2960.8 73.0218 2932.95 73.0218 2915.66 90.1276C2898.36 107.233 2870.52 107.233 2853.22 90.1276C2835.92 73.0218 2808.08 73.0218 2790.78 90.1276C2773.48 107.233 2745.64 107.233 2728.34 90.1276C2711.05 73.0218 2683.2 73.0218 2665.91 90.1276C2648.61 107.233 2620.77 107.233 2603.47 90.1276C2586.17 73.0218 2558.33 73.0218 2541.03 90.1276C2523.73 107.233 2495.89 107.233 2478.59 90.1276C2461.3 73.0218 2433.45 73.0218 2416.16 90.1276C2398.86 107.233 2371.02 107.233 2353.72 90.1276C2336.42 73.0218 2308.58 73.0218 2291.28 90.1276C2273.98 107.233 2246.14 107.233 2228.84 90.1276C2211.55 73.0218 2183.7 73.0218 2166.41 90.1276C2149.11 107.233 2121.27 107.233 2103.97 90.1276C2086.67 73.0218 2058.83 73.0218 2041.53 90.1276C2024.23 107.233 1996.39 107.233 1979.09 90.1276C1961.8 73.0218 1933.95 73.0218 1916.66 90.1276C1899.36 107.233 1871.52 107.233 1854.22 90.1276Z" fill="#FAF338"/>
</svg>
